<?xml version="1.0" encoding="UTF-8" standalone="no"?>
<!-- Created with Inkscape (http://www.inkscape.org/) -->

<svg
   version="1.1"
   id="svg1"
 
   viewBox="0 0 3779.5332 3179.5332"
   sodipodi:docname="vecteezy_solar-panel-logo_9514792-0.eps"
   xmlns:inkscape="http://www.inkscape.org/namespaces/inkscape"
   xmlns:sodipodi="http://sodipodi.sourceforge.net/DTD/sodipodi-0.dtd"
   xmlns="http://www.w3.org/2000/svg"
   xmlns:svg="http://www.w3.org/2000/svg">
  <defs
     id="defs1">
    <linearGradient
       x1="0"
       y1="0"
       x2="1"
       y2="0"
       gradientUnits="userSpaceOnUse"
       gradientTransform="matrix(-5840.89,2904.19,-2904.19,-5840.89,16550.9,16406.8)"
       spreadMethod="pad"
       id="linearGradient4">
      <stop
         style="stop-opacity:1;stop-color:#f58b1f"
         offset="0"
         id="stop3" />
      <stop
         style="stop-opacity:1;stop-color:#ffd51c"
         offset="1"
         id="stop4" />
    </linearGradient>
    <linearGradient
       x1="0"
       y1="0"
       x2="1"
       y2="0"
       gradientUnits="userSpaceOnUse"
       gradientTransform="matrix(-5983.3,2375.71,-2375.71,-5983.3,19137.9,14820)"
       spreadMethod="pad"
       id="linearGradient6">
      <stop
         style="stop-opacity:1;stop-color:#0b4890"
         offset="0"
         id="stop5" />
      <stop
         style="stop-opacity:1;stop-color:#039ce3"
         offset="1"
         id="stop6" />
    </linearGradient>
  </defs>
  <sodipodi:namedview
     id="namedview1"
     pagecolor="#ffffff"
     bordercolor="#000000"
     borderopacity="0.25"
     inkscape:showpageshadow="2"
     inkscape:pageopacity="0.0"
     inkscape:pagecheckerboard="0"
     inkscape:deskcolor="#d1d1d1">
    <inkscape:page
       x="0"
       y="0"
       inkscape:label="1"
       id="page1"
       width="3779.5332"
       height="3779.5332"
       margin="0"
       bleed="0" />
  </sodipodi:namedview>
  <g
     id="g1"
     inkscape:groupmode="layer"
     inkscape:label="1">
    <g
       id="group-R5">
      <path
         id="path2"
         d="M 0,28346.5 H 28346.5 V 0 H 0 v 28346.5"
         style="fill:#ffffff;fill-opacity:0;fill-rule:evenodd;stroke:none"
         transform="matrix(0.13333333,0,0,-0.13333333,0,3779.5333)" />
      <path
         id="path3"
         d="m 8843.5,18541.7 344.51,-172.3 344.55,-172.2 34.24,242.1 34.28,242.1 -378.79,-69.9 -378.79,-69.8 z m 549.06,1647.3 261.12,-283.1 261.15,-283.2 117.87,214.2 117.8,214.3 -378.99,68.9 z m 1097.24,1345.9 143.9,-357.3 143.8,-357.4 186.1,158.6 186.1,158.6 -329.9,198.7 -330,198.8 z m 1503,869.6 7.9,-385.1 7.8,-385.1 230.3,82.3 230.2,82.3 -238.1,302.8 -238.1,302.8 z m 1713.7,280.5 -129.2,-362.9 -129.1,-362.9 244.5,-4.6 244.4,-4.6 -115.3,367.5 -115.3,367.5 z m 1701.8,-345 -249.4,-293.6 -249.3,-293.6 226.9,-90.9 227,-91 22.4,384.5 22.4,384.6 z m 1469.1,-925.8 -337.2,-186.1 -337.3,-186.2 180,-165.5 180,-165.5 157.2,351.7 z m -8280.31,-1896.7 504.65,-376.4 504.67,-376.4 124.89,379.6 124.9,379.6 -629.58,-3.2 -629.53,-3.2 z m 910.87,1671.3 338.5,-530.8 338.54,-530.8 251.3,310.7 251.4,310.7 -589.9,220.1 -589.84,220.1 z m 1444.04,1240.1 128.4,-616.4 128.5,-616.3 345.1,201.5 345.2,201.5 -473.6,414.8 z m 1789.9,647.7 -98.4,-621.8 -98.3,-621.8 394.1,66.1 394.2,66 -295.8,555.8 -295.8,555.7 z m 1903.2,-28.6 -312.3,-546.6 -312.4,-546.6 392,-77.9 392,-77.9 -79.6,624.5 -79.7,624.5 z m 1769.6,-701.2 -485.8,-400.5 -485.8,-400.4 338.9,-211.8 338.9,-211.7 146.9,612.2 146.9,612.2 z m 1992.7,-2256.3 -625.6,-70.1 -625.7,-70.1 168.2,-362.5 168.3,-362.5 457.4,432.6 457.4,432.6 z m -586.5,973.4 -596.2,-202.3 -596.2,-202.3 241.9,-318.1 47.3,-62.3 44.9,-64 140.5,-200.1 7.6,10.3 1.6,-2 36,52.9 183.6,248.6 228.8,309.9 -40.3,-12 300.5,441.4 z m -7467.4,-6745.4 337.2,186.2 337.2,186.1 -180,165.5 -180,165.5 -157.2,-351.6 z m 462.7,-932.5 485.8,400.4 485.8,400.5 -339,211.7 -338.9,211.7 -146.8,-612.2 -146.9,-612.1 z m -1992.74,2256.2 625.64,70.1 625.7,70.1 -168.28,362.5 -168.26,362.5 -457.42,-432.6 -457.38,-432.6 z m 586.54,-973.3 596.2,202.2 596.2,202.3 -241.9,318.1 -47.4,62.3 -44.9,64 -140.4,200.2 -7.7,-10.4 -1.5,2.1 -36.1,-53 -183.52,-248.6 -228.77,-309.9 40.29,12 -300.5,-441.3 z m 2483.2,-258.2 c -925,461.3 -1663.7,1290.3 -1980.21,2359.7 -120.77,407.9 -170.81,820 -157.52,1223.1 l 0.08,2.5 c 0.96,28.6 2.25,57.1 3.83,85.6 l 0.4,6.8 c 1.56,26.8 3.38,53.6 5.49,80.3 l 0.7,9.2 c 2.16,26.6 4.63,53.2 7.35,79.8 l 1.27,12.1 c 2.59,24.7 5.43,49.3 8.53,73.9 l 1.7,13.6 c 3.23,25.1 6.72,50.1 10.42,75.1 214.16,1439.4 1236.76,2696.1 2724.16,3136.4 1977.7,585.5 4052.2,-487 4733.9,-2408 -1268,-93.7 -2534,-187.4 -3821,-284.1 -84.4,-6.4 -167.6,-42.3 -232.9,-95 -66.2,-53.5 -119.1,-128.1 -142.1,-211.3 -388.5,-1400.4 -774.9,-2771.9 -1164.1,-4159.6 z M 9512.74,18084 v 0 l 17.76,-399.2 17.77,-399.2 -605.33,173.1 -605.27,173.1 587.53,226.1 587.54,226.2 z m -598.85,-1277.4 329.44,199.6 329.47,199.6 53.75,-238.5 53.75,-238.6 -383.19,39 -383.23,38.9 h 0.01"
         style="fill:url(#linearGradient4);fill-opacity:1;fill-rule:evenodd;stroke:none"
         transform="matrix(0.13333333,0,0,-0.13333333,0,3779.5333)" />
      <path
         id="path4"
         d="m 15167.4,18761.5 c 433.6,32.4 867.2,64.1 1300.8,95.8 70,5.1 114.9,-56.6 99.7,-137.6 -80.4,-426.8 -162,-854.2 -243.2,-1281 -15.2,-80.2 -84.9,-144.6 -155.8,-143.4 -441.8,7.8 -882.8,16.8 -1323.8,24.6 -70.9,1.2 -116.3,61.7 -99.7,134.3 88.9,388.5 178.1,776.5 266.2,1164.7 16.6,72.9 86.6,137.4 155.8,142.6 z m 1717,126.1 c 433.6,32.5 867.2,64.2 1300.8,96.7 70.1,5.2 115.9,-62.4 102.2,-151.6 -72.1,-470.2 -145.6,-940.2 -218.4,-1410.4 -13.7,-88.4 -82.5,-159.2 -153.4,-158.1 -441,7.1 -882.8,16 -1323,23.7 -70.9,1.3 -117.8,69 -103,149.1 80,431.9 161.7,862.5 241.5,1294.2 15,81 84.1,151.2 153.3,156.4 z m 1716.2,127.8 c 433.6,31.8 868,64.9 1301.6,96.6 69.2,5.1 116.8,-69.6 104.7,-166.2 -64.5,-513.6 -129.1,-1027.1 -192.9,-1539.9 -12,-96.6 -80.8,-174.9 -150.9,-173.6 -441,7.7 -882.8,15.2 -1324.6,23.7 -70.9,1.4 -118.3,75.4 -104.7,164.6 72.2,474.3 144.5,948.5 216,1422.8 13.4,89.2 81.6,166.9 150.8,172 z m -3791.8,-1856 c 441.9,-12 884.5,-25 1326.3,-37.7 70.9,-2.1 117.2,-68.9 102.3,-148.3 -80.7,-427.6 -162.4,-854.3 -242.4,-1281.8 -14.8,-79.5 -86.6,-138.8 -159.1,-130.2 -450.1,52.9 -900.1,105.8 -1349.4,158 -72.5,8.4 -117.9,74.6 -101.3,147.5 88.1,388.2 176.3,776.5 264.6,1163.9 16.4,72.1 88.2,130.5 159,128.6 z m 1750.9,-49.2 c 441.8,-12 883.6,-25.7 1326.3,-37.7 70.8,-1.9 118.1,-75.4 104.6,-163 -72.3,-471 -146,-940.2 -217.6,-1411.2 -13.3,-87.6 -83.3,-153.4 -155.8,-145 -450.1,52.2 -900.1,105.9 -1349.3,158.1 -72.6,8.4 -119.6,81.3 -104.7,162.2 79.1,431.8 160.7,862.2 240.7,1293.3 14.8,80 84.9,145.2 155.8,143.3 z m 1749.9,-49.1 c 442.7,-12.7 884.5,-25 1327.2,-37.7 70,-2 119.9,-82 108,-177.7 -64,-513.7 -129.7,-1026.3 -192.9,-1540.7 -11.8,-95.8 -81.7,-168.1 -153.4,-159.7 -450,52.2 -900.1,105.2 -1350.2,158 -72.5,8.6 -120.4,87.7 -107.1,177 70.7,474.2 143.6,948.4 215.1,1422.7 13.4,88.4 82.5,160.1 153.3,158.1 z m -5251.6,147.4 c 442.7,-12.7 885.3,-25 1327.2,-37.7 70.8,-2 115.4,-62.2 98.9,-133.5 -89,-384.1 -178.3,-767.4 -267.1,-1151.6 -16.7,-72 -89.1,-124.8 -161.6,-116.3 -450.1,52.9 -900.1,105.8 -1350.2,158.1 -71.7,8.3 -115.3,68.8 -97.2,133.5 96.4,344.8 192.6,689.7 289.3,1034.5 17.9,63.9 90.7,115 160.7,113 z m 1392.3,-1648.8 c 450.1,-57.1 900.9,-114 1351.8,-171.2 72.5,-9.2 119.8,-82 104.7,-162.2 -80.5,-426.8 -161.8,-853.4 -242.3,-1281 -15.1,-80.2 -87.3,-132.7 -160.8,-117.1 -459,97.4 -917.4,194 -1375.7,290.8 -73.4,15.4 -120.4,88.4 -103.9,161.3 88.2,388.3 176.3,775.7 264.6,1163.9 16.4,72.1 89.1,124.7 161.6,115.5 z m 1784.6,-226.1 c 450.1,-56.4 900.9,-114 1351.8,-171.1 72.6,-9.2 120.5,-88.5 107.2,-176.1 -71.6,-471 -145.3,-940.3 -216.8,-1411.3 -13.4,-88.4 -84.9,-147.4 -158.3,-131.9 -459.1,97.5 -917.4,194.4 -1374.9,291.6 -74.1,15.8 -122,94.2 -107.2,175.3 79.2,431.6 159.9,862.5 239.1,1294.1 14.7,80.3 86.6,138.5 159.1,129.4 z m 1783.8,-225.2 c 450.9,-57.1 901.8,-114.7 1352.6,-171.2 71.8,-9 122.3,-95 110.5,-190.8 -63.2,-514.4 -128.8,-1027.1 -192.1,-1541.5 -11.7,-95.8 -82.4,-162.2 -155.7,-146.6 -458.4,97.4 -917.6,193.6 -1375.8,291.6 -74.3,15.8 -122.8,100.7 -109.6,189.2 70.8,475 143.4,949.3 214.3,1424.3 13.2,88.5 83.3,154.2 155.8,145 z m -5353,676.6 c 450.8,-56.6 901.7,-113.4 1352.6,-171.2 72.5,-9.3 117.9,-75.4 101.4,-146.6 -89,-384.2 -177.3,-768.6 -266.2,-1152.5 -16.6,-71.5 -90.7,-118.1 -164.9,-102.4 -458.3,97.3 -916.6,194 -1375.7,291.6 -72.6,15.5 -117.9,81.9 -99.8,146.6 96.5,344.9 192.7,689.8 289.4,1034.5 17.9,64 91.5,108.9 163.2,100 z m 1426,-1825.8 c 459.1,-101.6 918.3,-202.9 1378.2,-304.6 73.4,-16.3 121.4,-95.1 106.4,-175.3 -79.8,-426.8 -161.2,-853.6 -241.6,-1281.1 -15.2,-81.1 -88.1,-126.8 -163.2,-104 -467.3,141.9 -934.6,284.8 -1401.3,425.9 -74.9,22.7 -123.8,99.2 -107.1,172.9 88,388.3 177.2,776.4 264.6,1163.9 16.4,72.9 90.6,118.6 164,102.3 z m 1819.2,-402.1 c 458.3,-101.5 917.5,-203 1377.4,-304.7 73.4,-16.2 123.1,-101.6 109.7,-190 -71.5,-471 -144.7,-940.4 -216.8,-1411.3 -13.6,-88.5 -85.7,-140.7 -160.8,-117.9 -467.3,141.8 -934.7,283.5 -1400.4,425.1 -75.8,23 -125.5,106.5 -110.5,187.5 79.8,431.7 159.9,862.5 239.9,1294.2 14.8,80.2 87.4,133.5 161.5,117.1 z m 1817.6,-402.2 c 459.2,-102.2 918.2,-203.6 1378.2,-305.5 72.5,-16 124.8,-107.3 113,-203.9 -63.2,-513.6 -128.3,-1026.4 -192.1,-1540.7 -12,-96.7 -84.1,-155.9 -158.3,-133.5 -467.4,141.4 -933.9,283.3 -1401.3,425.9 -75,22.9 -126.3,113.1 -112.9,202.3 71.5,475.1 143.6,949.3 215.2,1423.6 13.3,88.4 84.1,148.3 158.2,131.8 z m -5455.2,1206.5 c 459.9,-101.8 919.1,-203.1 1378.2,-304.7 74.2,-16.4 120.6,-88.3 103.9,-160.5 -88.8,-383.2 -176.8,-767.6 -266.3,-1151.6 -16.8,-72.3 -91.4,-111.3 -166.5,-88.5 -466.5,141.8 -934,283.1 -1401.3,425.1 -74.3,22.6 -121.3,93.4 -103,158.9 96.3,344.9 192.7,689.7 289.3,1034.5 17.9,64 93.1,102.9 165.7,86.8 z m 1177.1,4272.3 c 434.4,31.8 868,64.9 1301.6,96.6 70,5.2 114.1,-50 97.2,-122.8 -88.6,-383.5 -179.1,-767.2 -268.7,-1151.6 -16.7,-71.8 -87.4,-130 -158.3,-128.6 -441.8,8.4 -882.8,15.2 -1324.6,23.7 -70.1,1.4 -113.6,55.9 -95.6,119.6 97.4,345.9 194.5,690.5 291,1035.3 18.1,64.7 89,122.8 157.4,127.8 v 0"
         style="fill:url(#linearGradient6);fill-opacity:1;fill-rule:evenodd;stroke:none"
         transform="matrix(0.13333333,0,0,-0.13333333,0,3779.5333)" />
 
    </g>
  </g>
</svg>
